<?xml version="1.0" encoding="utf-8"?><svg xmlns="http://www.w3.org/2000/svg" xmlns:xlink="http://www.w3.org/1999/xlink" version="1.1" class="page" pageAlignment="none" x="0px" y="0px" width="200px" height="200px" viewBox="0 0 200 200" enable-background="new 0 0 200 200" xml:space="preserve"><defs/><style type="text/css"/><style type="text/css"/><g type="LAYER" name="workspace" id="workspace" locked="true"/><g id="Layer 01" type="LAYER" name="Layer 01"><path transform="matrix(1 0 0 1 -5.684341886080802e-14 0)" width="199.99999999999997" height="199.9999999999999" stroke-width="0" stroke-miterlimit="3" stroke="#020000" fill="#3D3535" opacity="0.93" d="M17.102521008403443,0 L182.89747899159667,0 Q199.99999999999997,0 199.99999999999997,21.594092182327525 L199.99999999999997,178.40590781767258 Q199.99999999999997,199.9999999999999 182.89747899159667,199.9999999999999 L17.102521008403443,199.9999999999999 Q0,199.9999999999999 0,178.40590781767258 L0,21.594092182327525 Q0,0 17.102521008403443,0 Z "/><path transform="matrix(1 0 0 1 157.16981132075432 0)" width="11.226415094339586" height="199.99999999999997" stroke-width="0" stroke-miterlimit="3" stroke="#B42929" fill="#FAD666" opacity="0.93" d="M5.684341886080802e-14,0 L11.226415094339643,0 L11.226415094339643,199.99999999999997 L5.684341886080802e-14,199.99999999999997 L5.684341886080802e-14,0 Z "/></g></svg>